<svg width="33" height="33" viewBox="0 0 33 33" fill="none" xmlns="http://www.w3.org/2000/svg">
<g clip-path="url(#clip0_424_194)">
<path d="M27.2427 22.8998L27.376 23.0332C27.6787 23.3384 28.0537 23.5622 28.466 23.6837C28.8784 23.8051 29.3148 23.8203 29.7347 23.7278C30.1477 23.6411 30.5323 23.452 30.8532 23.1778C31.174 22.9035 31.4207 22.553 31.5707 22.1585C32.3068 20.2256 32.6587 18.1676 32.6067 16.0998C32.4566 12.0385 30.7861 8.18181 27.9264 5.29415C25.0666 2.40649 21.2263 0.698659 17.1667 0.509176C15.02 0.434533 12.8802 0.792896 10.875 1.5629C8.86979 2.3329 7.04014 3.49878 5.49514 4.99102C3.95014 6.48327 2.72143 8.27132 1.88225 10.2486C1.04307 12.2259 0.610612 14.3519 0.610657 16.4998C0.615597 20.7418 2.30289 24.8086 5.3024 27.8081C8.30192 30.8076 12.3687 32.4949 16.6107 32.4998C17.0613 32.4998 17.504 32.4705 17.944 32.4332C18.2779 32.405 18.5889 32.2522 18.8152 32.0052C19.0415 31.7581 19.1665 31.4349 19.1653 31.0998L19.1227 26.3158C19.1119 25.3705 19.3831 24.4433 19.9016 23.6528C20.4202 22.8623 21.1626 22.2443 22.0341 21.8777C22.9056 21.5111 23.8665 21.4125 24.7942 21.5946C25.722 21.7766 26.5744 22.2311 27.2427 22.8998ZM23.32 11.2332C23.7023 11.1317 24.1061 11.1459 24.4803 11.274C24.8546 11.402 25.1824 11.6381 25.4225 11.9525C25.6625 12.2669 25.804 12.6453 25.8289 13.0401C25.8539 13.4348 25.7613 13.8281 25.5627 14.1702C25.3642 14.5123 25.0686 14.7878 24.7135 14.962C24.3584 15.1361 23.9596 15.2011 23.5675 15.1486C23.1755 15.0961 22.8078 14.9286 22.511 14.6671C22.2142 14.4057 22.0016 14.0621 21.9 13.6798C21.8325 13.426 21.8158 13.1613 21.8506 12.9009C21.8855 12.6405 21.9713 12.3896 22.1032 12.1624C22.235 11.9351 22.4104 11.7361 22.6191 11.5767C22.8279 11.4173 23.0661 11.3006 23.32 11.2332ZM11.0133 23.0998C10.631 23.2013 10.2272 23.1871 9.85298 23.0591C9.47874 22.931 9.15087 22.6949 8.91082 22.3805C8.67077 22.0662 8.52933 21.6877 8.50437 21.2929C8.47941 20.8982 8.57206 20.5049 8.77061 20.1628C8.96915 19.8207 9.26468 19.5452 9.61981 19.371C9.97494 19.1969 10.3737 19.1319 10.7658 19.1844C11.1578 19.2369 11.5255 19.4045 11.8223 19.6659C12.1191 19.9273 12.3318 20.2709 12.4333 20.6532C12.5008 20.9071 12.5176 21.1718 12.4827 21.4321C12.4478 21.6925 12.362 21.9435 12.2302 22.1707C12.0983 22.3979 11.923 22.5969 11.7142 22.7563C11.5054 22.9157 11.2672 23.0325 11.0133 23.0998ZM11.0133 15.0998C10.631 15.2013 10.2272 15.1871 9.85298 15.0591C9.47874 14.931 9.15087 14.6949 8.91082 14.3805C8.67077 14.0662 8.52933 13.6877 8.50437 13.2929C8.47941 12.8982 8.57206 12.5049 8.77061 12.1628C8.96915 11.8207 9.26468 11.5452 9.61981 11.371C9.97494 11.1969 10.3737 11.1319 10.7658 11.1844C11.1578 11.2369 11.5255 11.4045 11.8223 11.6659C12.1191 11.9273 12.3318 12.2709 12.4333 12.6532C12.5008 12.9071 12.5176 13.1718 12.4827 13.4321C12.4478 13.6925 12.362 13.9435 12.2302 14.1707C12.0983 14.3979 11.923 14.5969 11.7142 14.7563C11.5054 14.9157 11.2672 15.0325 11.0133 15.0998ZM17.68 11.0998C17.2977 11.2013 16.8939 11.1871 16.5196 11.0591C16.1454 10.931 15.8175 10.6949 15.5775 10.3805C15.3374 10.0662 15.196 9.68768 15.171 9.29293C15.1461 8.89818 15.2387 8.5049 15.4373 8.16281C15.6358 7.82071 15.9313 7.54517 16.2865 7.37102C16.6416 7.19687 17.0404 7.13194 17.4324 7.18442C17.8245 7.23691 18.1922 7.40446 18.489 7.6659C18.7858 7.92733 18.9984 8.2709 19.1 8.65318C19.1674 8.90707 19.1842 9.17176 19.1494 9.43213C19.1145 9.69251 19.0287 9.94346 18.8968 10.1707C18.765 10.3979 18.5896 10.5969 18.3808 10.7563C18.1721 10.9157 17.9339 11.0325 17.68 11.0998Z" fill="#FF782D"/>
</g>
<defs>
<clipPath id="clip0_424_194">
<rect width="32" height="32" fill="white" transform="translate(0.5 0.5)"/>
</clipPath>
</defs>
</svg>
