<svg width="33" height="33" viewBox="0 0 33 33" fill="none" xmlns="http://www.w3.org/2000/svg">
<path d="M32.0533 7.34394C32.3892 7.66894 32.5608 8.03644 32.3675 8.49061C32.1808 8.92894 31.8133 9.06394 31.355 9.06228C29.535 9.05394 27.715 9.05894 25.8958 9.05894H25.4983V12.3914C25.5825 12.3981 25.6717 12.4106 25.7608 12.4106C26.385 12.4131 27.0092 12.4106 27.6325 12.4123C28.3358 12.4139 28.7008 12.7831 28.7017 13.4948C28.7033 14.7739 28.7025 16.0523 28.7025 17.3314C28.7025 21.9681 28.6958 26.6048 28.7108 31.2423C28.7125 31.8206 28.5558 32.2498 28.0167 32.4998H20.2167C20.2192 31.6473 20.2233 30.7948 20.2233 29.9423V13.5989C20.2233 12.7423 20.5542 12.4123 21.41 12.4114C22.1067 12.4114 22.8033 12.4098 23.5 12.4073C23.5192 12.4073 23.5383 12.3956 23.6 12.3756V12.0289C23.6 8.59728 23.5992 5.16644 23.6025 1.73561C23.6025 1.56061 23.6108 1.37894 23.6583 1.21228C23.7775 0.789777 24.2125 0.513944 24.6425 0.563944C25.0842 0.614777 25.43 0.96561 25.4642 1.40894C25.4775 1.59228 25.4658 1.77728 25.4658 1.99561H25.8383C27.6792 1.99561 29.52 1.99978 31.36 1.99311C31.8058 1.99144 32.1633 2.12644 32.3567 2.54478C32.5575 2.97978 32.41 3.34644 32.0992 3.67894C31.5092 4.30811 30.9275 4.94644 30.3225 5.60311C30.3925 5.68061 30.4567 5.75644 30.5267 5.82644C31.0342 6.33394 31.5383 6.84394 32.0533 7.34394Z" fill="#FF782D"/>
<path d="M18.3492 20.6849C18.3508 24.6233 18.3475 28.5616 18.345 32.4999H10.9825C10.9817 28.5716 10.9792 24.6441 10.9808 20.7158C10.9808 20.1283 11.3625 19.7299 11.9533 19.7266C13.7617 19.7174 15.5708 19.7174 17.3792 19.7266C17.9592 19.7299 18.3483 20.1199 18.3492 20.6849Z" fill="#FF782D"/>
<path d="M9.11082 32.4997H1.49832C0.959151 32.273 0.778317 31.8664 0.786651 31.2889C0.810817 29.5539 0.79415 27.8189 0.795817 26.083C0.795817 25.3122 1.14665 24.963 1.92165 24.963C3.93748 24.9622 5.95415 24.9622 7.96998 24.963C8.75498 24.963 9.10665 25.3189 9.10748 26.1089C9.10915 28.2389 9.10998 30.3697 9.11082 32.4997Z" fill="#FF782D"/>
<path d="M17.62 9.02208C17.1392 9.24874 16.615 9.04374 16.3483 8.52041C16.1417 8.11458 15.9417 7.70708 15.7175 7.25791C15.645 7.38208 15.5917 7.46374 15.5458 7.54958C12.4825 13.2387 8.01 17.4129 2.10667 20.0487C1.28917 20.4137 0.965 20.3171 0.5 19.5862V19.0871C0.661667 18.6962 0.976667 18.4979 1.3525 18.3312C6.825 15.8979 10.975 12.0312 13.8375 6.77708C13.895 6.67124 13.9433 6.56124 14.0267 6.39208C13.4742 6.50208 12.99 6.60624 12.5025 6.69291C12.0833 6.76708 11.6767 6.54291 11.5042 6.16458C11.2608 5.62958 11.5575 5.00041 12.1425 4.87041C13.2375 4.62791 14.335 4.39874 15.435 4.17874C15.9725 4.07124 16.3117 4.24791 16.5567 4.73791C17.0508 5.72124 17.5417 6.70624 18.0258 7.69458C18.2883 8.23041 18.1108 8.79041 17.62 9.02208Z" fill="#FF782D"/>
</svg>
