<svg width="33" height="33" viewBox="0 0 33 33" fill="none" xmlns="http://www.w3.org/2000/svg">
<g clip-path="url(#clip0_424_277)">
<path d="M32.4242 21.8442C32.2667 23.1367 31.365 24.135 30.0975 24.4183C28.37 24.805 26.6425 23.4892 26.5708 21.7183C26.5608 21.48 26.4817 21.3817 26.2658 21.3C24.7233 20.7175 23.1858 20.12 21.6183 19.5158C21.115 20.345 20.4683 21.035 19.6367 21.5617C19.6675 21.6517 19.6883 21.73 19.72 21.8042C20.3617 23.3242 21.0067 24.8425 21.6458 26.3633C21.715 26.5275 21.78 26.6267 21.9967 26.6292C23.5208 26.65 24.7667 27.7733 24.8983 29.225C25.0408 30.8017 24.0758 32.1142 22.5333 32.4433C22.4858 32.4542 22.4408 32.4808 22.395 32.5H21.5217C21.4658 32.4783 21.4108 32.4492 21.3533 32.4367C19.8175 32.09 18.8317 30.6283 19.0775 29.0667C19.185 28.3808 19.5242 27.825 20.0258 27.35C19.335 25.7167 18.6508 24.0917 17.9525 22.4725C17.9233 22.405 17.7542 22.3458 17.665 22.3625C16.7517 22.5317 15.8358 22.5533 14.9517 22.2667C14.2683 22.0458 13.6183 21.7233 12.95 21.445C11.8567 22.5392 10.72 23.6767 9.575 24.8217C9.60417 24.8717 9.64583 24.9425 9.68833 25.0133C11.2567 27.6142 10.0825 31.0675 7.24417 32.1617C6.8425 32.3167 6.40833 32.3892 5.98917 32.5H4.92917C4.87 32.4817 4.8125 32.4575 4.7525 32.4467C2.635 32.0708 1.2775 30.8425 0.66 28.79C0.595 28.575 0.5525 28.3525 0.5 28.1333V27.0108C0.606667 26.6 0.6775 26.1758 0.826667 25.7817C1.9125 22.9142 5.39583 21.7317 8.015 23.3292C8.07667 23.3667 8.14 23.4017 8.18 23.425C9.32667 22.2792 10.4642 21.1425 11.6233 19.9842C10.9633 19.0308 10.5725 17.955 10.5292 16.7608C10.4867 15.5775 10.7725 14.4783 11.3858 13.4433C10.5033 12.6933 9.635 11.955 8.77167 11.2217C6.66583 12.6242 4.45167 11.8133 3.38583 10.5025C2.175 9.01415 2.2125 6.86249 3.47417 5.42999C4.7625 3.96665 6.875 3.64249 8.5125 4.64999C9.9825 5.55332 10.99 7.61082 9.985 9.78332C10.4125 10.1475 10.8458 10.5175 11.2792 10.8858C11.7142 11.2558 12.1483 11.6242 12.5808 11.9917C14.9717 10.2142 17.4142 10.1108 19.9683 11.6842C20.02 11.6367 20.0967 11.5717 20.1675 11.5017C21.7483 9.92165 23.3258 8.33915 24.9125 6.76499C25.0725 6.60582 25.0817 6.49665 24.9833 6.29082C24.2533 4.76665 24.4042 3.30499 25.4658 2.00332C26.5175 0.713322 27.9283 0.274155 29.5233 0.712488C31.1275 1.15332 32.1158 2.25749 32.3775 3.91249C32.625 5.47665 32.075 6.77416 30.7908 7.69415C29.5125 8.61082 28.1225 8.70332 26.6958 8.01582C26.5525 7.94749 26.45 7.87082 26.2925 8.02999C24.6683 9.66916 23.0333 11.2975 21.4025 12.93C21.3675 12.9658 21.34 13.0092 21.3017 13.06C22.2933 14.4833 22.6083 16.05 22.295 17.7633C22.8233 17.9658 23.3358 18.1608 23.8467 18.3583C24.9025 18.765 25.9583 19.1692 27.0108 19.5833C27.17 19.6458 27.26 19.6267 27.3833 19.5017C28.32 18.5533 29.6092 18.3342 30.7883 18.9075C31.91 19.4525 32.57 20.6383 32.4242 21.8442Z" fill="#FF782D"/>
</g>
<defs>
<clipPath id="clip0_424_277">
<rect width="32" height="32" fill="white" transform="translate(0.5 0.5)"/>
</clipPath>
</defs>
</svg>
