<svg width="33" height="31" viewBox="0 0 33 31" fill="none" xmlns="http://www.w3.org/2000/svg">
<path d="M15.0342 1.72594C15.035 2.23511 15.0342 2.74427 15.0342 3.25427C15.0333 3.96677 14.8133 4.24761 14.1292 4.42594C12.5325 4.84177 11.0508 5.50427 9.78083 6.57094C9.23083 7.03261 8.75 7.57678 8.27667 8.13511C8.92167 7.68678 9.60167 7.40677 10.3892 7.45594C11.1867 7.50511 11.8525 7.82844 12.37 8.43594C13.1833 9.39094 13.2633 10.7518 12.5775 11.7976C11.9042 12.8251 10.6058 13.2984 9.43333 12.9393C8.71583 12.7201 8.1675 12.2818 7.795 11.6309C7.43 10.9909 7.35083 10.3026 7.5025 9.58011C7.46583 9.57177 7.42917 9.56427 7.39333 9.55678C7.215 10.1334 7 10.7026 6.86667 11.2893C6.46833 13.0476 6.53083 14.7934 7.0725 16.5193C7.305 17.2576 7.17583 17.5709 6.505 17.9609C6.05583 18.2218 5.6075 18.4834 5.15417 18.7368C4.54333 19.0784 3.97167 18.8701 3.72417 18.2134C2.73167 15.5743 2.615 12.8893 3.31333 10.1634C3.33917 10.0651 3.3625 9.96594 3.4 9.81344C3.20917 9.81344 3.04917 9.81094 2.88917 9.81427C2.52583 9.82094 2.16 9.81011 1.79917 9.84427C1.21167 9.89927 0.765 9.71677 0.5 9.16844V8.67011C1.43833 6.82011 2.3775 4.97094 3.31583 3.12177C3.35333 3.04761 3.3925 2.97427 3.43333 2.90177C3.80833 2.23844 4.57833 2.17427 5.05083 2.77761C5.46083 3.30094 5.85167 3.83927 6.25167 4.37011C6.31333 4.45094 6.37917 4.52761 6.45167 4.61761C7.35 3.66677 8.34083 2.86844 9.45833 2.22844C10.815 1.45094 12.2658 0.940108 13.8075 0.689275C14.5825 0.562608 15.0317 0.947608 15.0342 1.72594Z" fill="#FF782D"/>
<path d="M31.4408 9.841C30.9217 9.84517 30.4017 9.82184 29.8825 9.81184C29.7817 9.80933 29.6808 9.811 29.5475 9.811C29.6458 10.2602 29.7458 10.671 29.8258 11.0852C30.2875 13.4893 30.085 15.841 29.245 18.1385C28.9708 18.8885 28.4075 19.096 27.7175 18.7018C27.285 18.4543 26.855 18.2027 26.4225 17.9543C25.77 17.5785 25.6333 17.2527 25.8583 16.5368C26.4575 14.6302 26.4733 12.7143 25.9483 10.7935C25.835 10.3793 25.6683 9.97934 25.4825 9.5785C25.5967 10.3718 25.4908 11.1118 25.0525 11.781C24.6083 12.4577 23.9792 12.8718 23.1825 13.0177C21.9592 13.2418 20.7058 12.5885 20.1667 11.4543C19.6225 10.3093 19.9225 8.93517 20.8883 8.11184C21.7442 7.38267 23.2575 7.06184 24.6067 8.1685C24.6283 8.15017 24.6492 8.13184 24.6708 8.11434C24.3783 7.78517 24.1017 7.44017 23.7892 7.13184C22.3983 5.76267 20.71 4.9285 18.8417 4.43267C18.1125 4.23934 17.9042 3.981 17.9033 3.226V1.76017C17.905 0.939335 18.3508 0.554336 19.1583 0.692669C21.9042 1.16184 24.2683 2.37184 26.23 4.356C26.31 4.43684 26.3833 4.52517 26.4833 4.63684C26.8508 4.14934 27.1992 3.68767 27.5475 3.22517C27.66 3.076 27.7683 2.9235 27.885 2.77767C28.3633 2.17934 29.1508 2.22684 29.5 2.9035C30.4517 4.7485 31.39 6.60017 32.3167 8.45767C32.6608 9.14767 32.215 9.83434 31.4408 9.841Z" fill="#FF782D"/>
<path d="M26.5667 22.8254C24.7492 25.0079 22.4792 26.4804 19.7225 27.1896C19.6625 27.2046 19.6017 27.2204 19.5433 27.2396C19.525 27.2454 19.5117 27.2646 19.4783 27.2921C19.67 27.8621 19.8642 28.4404 20.0567 29.0179C20.3367 29.8562 19.9342 30.4112 19.0425 30.4121C17.3275 30.4137 15.6125 30.4137 13.8975 30.4121C12.9917 30.4112 12.6017 29.8579 12.8908 28.9921C13.0808 28.4237 13.2708 27.8546 13.4625 27.2796C12.925 27.1054 12.3992 26.9529 11.885 26.7654C9.675 25.9587 7.84833 24.6129 6.355 22.8037C5.90167 22.2537 6.00833 21.6429 6.62417 21.2821C7.09083 21.0096 7.55833 20.7404 8.0275 20.4729C8.60417 20.1421 8.9875 20.1971 9.43667 20.6887C10.7 22.0696 12.2083 23.0629 14.0275 23.5429C14.5942 23.6921 15.18 23.7671 15.7625 23.8446C14.05 22.9512 13.3917 21.8437 13.74 20.3954C14.0433 19.1321 15.1933 18.2404 16.4992 18.2571C17.8 18.2729 18.9233 19.1729 19.2033 20.4254C19.53 21.8846 18.8667 22.9887 17.115 23.8354C18.0442 23.7804 18.8892 23.5987 19.7092 23.2946C21.1808 22.7487 22.4183 21.8612 23.4767 20.7121C23.9592 20.1887 24.3233 20.1346 24.9333 20.4862C25.3833 20.7454 25.8342 21.0021 26.2817 21.2646C26.935 21.6479 27.0467 22.2487 26.5667 22.8254Z" fill="#FF782D"/>
</svg>
