<svg width="33" height="33" viewBox="0 0 33 33" fill="none" xmlns="http://www.w3.org/2000/svg">
<path d="M2.16417 10.8857V11.2141C2.16417 16.2774 2.16333 21.3407 2.16583 26.4041C2.16583 26.6532 2.1675 26.9057 2.20917 27.1499C2.57917 29.3524 4.3175 30.8257 6.565 30.8299C10.5667 30.8366 14.5692 30.8316 18.5717 30.8316H18.9083C18.85 30.5974 18.7925 30.4191 18.7642 30.2366C18.5342 28.7691 18.3267 27.2982 18.0783 25.8341C17.9567 25.1207 18.0333 24.4682 18.345 23.8082C19.7908 20.7491 21.2125 17.6774 22.6442 14.6116C23.5983 12.5682 25.68 11.8066 27.7242 12.7574C28.7367 13.2274 29.7425 13.7116 30.7408 14.1849V10.8857H2.16417ZM13.7367 26.8366C12.6458 26.8424 11.5558 26.8382 10.465 26.8382C9.36417 26.8374 8.26333 26.8382 7.1625 26.8374C6.76166 26.8374 6.45917 26.6566 6.2725 26.3099C6.09166 25.9741 6.11 25.6266 6.315 25.3032C6.515 24.9882 6.82 24.8441 7.18583 24.8441C9.37667 24.8407 11.5683 24.8374 13.76 24.8449C14.3733 24.8474 14.8 25.2832 14.795 25.8557C14.79 26.4299 14.3625 26.8332 13.7367 26.8366ZM16.6758 21.4932C16.5558 21.5199 16.4283 21.5182 16.305 21.5182C14.7983 21.5199 13.2925 21.5191 11.7867 21.5191C10.26 21.5191 8.73333 21.5224 7.20667 21.5174C6.48917 21.5149 6.005 20.8999 6.19 20.2432C6.3125 19.8082 6.7025 19.5249 7.2025 19.5232C8.43833 19.5199 9.675 19.5224 10.9108 19.5224C12.7492 19.5224 14.5875 19.5199 16.4258 19.5241C16.9758 19.5249 17.4017 19.8991 17.4592 20.4099C17.515 20.9107 17.1783 21.3832 16.6758 21.4932ZM17.4383 15.4066C17.3417 15.8141 17.0825 16.0807 16.6633 16.1657C16.5325 16.1924 16.3958 16.1982 16.2617 16.1982C14.7758 16.2007 13.2908 16.1999 11.8058 16.1999C10.29 16.1999 8.77333 16.2024 7.2575 16.1982C6.5825 16.1957 6.14083 15.7682 6.16 15.1549C6.17583 14.6507 6.55583 14.2507 7.05917 14.2099C7.14166 14.2032 7.225 14.2032 7.30833 14.2032C10.3092 14.2032 13.3108 14.1974 16.3125 14.2132C16.5742 14.2141 16.8717 14.3007 17.09 14.4432C17.4167 14.6566 17.53 15.0182 17.4383 15.4066Z" fill="#FF782D"/>
<path d="M30.7608 6.56563C30.7425 6.14313 30.6991 5.71063 30.5816 5.3073C30.0325 3.41396 28.3725 2.22396 26.3141 2.22313C19.7541 2.22146 13.1941 2.2223 6.63332 2.22313C6.50915 2.22313 6.38415 2.22396 6.25915 2.22896C4.29415 2.3048 2.53332 3.7973 2.25582 5.74646C2.11998 6.69563 2.18748 7.6748 2.16582 8.6398C2.16415 8.70813 2.18248 8.7773 2.19248 8.85563H30.7541C30.7591 8.75813 30.7675 8.6598 30.7683 8.56146C30.7691 7.89563 30.7891 7.2298 30.7608 6.56563ZM7.80832 6.86896C7.26415 6.86646 6.81582 6.4198 6.81415 5.87896C6.81332 5.32896 7.28998 4.86146 7.83582 4.8773C8.38082 4.8923 8.81165 5.34146 8.80582 5.89063C8.79998 6.4423 8.36332 6.87146 7.80832 6.86896ZM11.1525 6.86896C10.5983 6.87313 10.1591 6.4448 10.1525 5.89396C10.145 5.33146 10.5941 4.8723 11.1483 4.87646C11.6825 4.88063 12.1416 5.34146 12.1433 5.87563C12.145 6.41646 11.6983 6.8648 11.1525 6.86896ZM14.48 6.86813C13.9316 6.8723 13.4808 6.4373 13.4725 5.8948C13.4641 5.33896 13.9216 4.87396 14.4741 4.8773C15.0125 4.88063 15.4658 5.33563 15.4675 5.87396C15.4691 6.41813 15.0258 6.86396 14.48 6.86813Z" fill="#FF782D"/>
<path d="M29.0075 21.4306C28.8208 21.8306 28.6433 22.2139 28.465 22.5964C27.6892 24.2614 26.91 25.9256 26.14 27.5931C26 27.8981 25.8 28.1256 25.5117 28.2989C24.2392 29.0639 22.9733 29.8406 21.7033 30.6098C20.9075 31.0923 20.1783 30.7514 20.0358 29.8306C19.8042 28.3323 19.5708 26.8339 19.3567 25.3331C19.3258 25.1181 19.3458 24.8623 19.435 24.6673C20.3908 22.5823 21.3658 20.5064 22.3358 18.4281C22.3442 18.4106 22.3617 18.3964 22.4017 18.3506C24.6017 19.3764 26.7908 20.3973 29.0075 21.4306Z" fill="#FF782D"/>
<path d="M30.6608 17.8088C30.4492 18.4222 30.14 19.0022 29.8625 19.6255C27.6367 18.588 25.4433 17.5647 23.215 16.5255C23.4892 15.948 23.7217 15.4038 24 14.883C24.55 13.8555 25.7792 13.393 26.8558 13.8405C27.7842 14.2263 28.6975 14.6522 29.59 15.113C30.5475 15.608 31.0142 16.7847 30.6608 17.8088Z" fill="#FF782D"/>
<path d="M30.7667 26.4633C30.7542 28.6867 29.2817 30.4433 27.0842 30.7742C26.3308 30.8875 25.55 30.8192 24.7808 30.8308C24.5325 30.835 24.2842 30.8317 24.035 30.8317C24.0283 30.8092 24.0208 30.7867 24.0142 30.7642C24.7208 30.3342 25.4192 29.89 26.1358 29.4775C26.7092 29.1483 27.1042 28.69 27.38 28.0908C28.4333 25.7992 29.5058 23.5158 30.5717 21.23C30.6133 21.1392 30.6617 21.0508 30.7433 20.8892C30.7558 21.0408 30.7675 21.1167 30.7675 21.1917C30.7692 22.9492 30.7767 24.7058 30.7667 26.4633Z" fill="#FF782D"/>
</svg>
