<svg width="33" height="33" viewBox="0 0 33 33" fill="none" xmlns="http://www.w3.org/2000/svg">
<g clip-path="url(#clip0_424_140)">
<path d="M32.4275 9.98193H0.5V30.0053C0.546667 30.1736 0.5875 30.3453 0.6425 30.5111C1.02 31.6553 2.08417 32.4294 3.3175 32.4353C5.12583 32.4436 6.935 32.4378 8.74333 32.4378C15.6567 32.4378 22.5692 32.4386 29.4817 32.4378C30.9 32.4369 31.9983 31.6353 32.3367 30.3428C32.3992 30.1044 32.4333 29.8511 32.4333 29.6053C32.4383 23.1394 32.4375 16.6736 32.4375 10.2078C32.4375 10.1469 32.4325 10.0853 32.4275 9.98193ZM11.58 24.6044C11.2308 25.0386 10.6692 25.0661 10.17 24.6669C8.67667 23.4736 7.185 22.2803 5.69417 21.0844C5.0825 20.5936 5.08083 19.9561 5.69167 19.4661C7.19 18.2636 8.69 17.0628 10.1908 15.8644C10.6717 15.4811 11.2325 15.5153 11.5775 15.9403C11.9308 16.3761 11.8433 16.9378 11.3517 17.3336C10.2342 18.2311 9.11333 19.1236 7.99417 20.0186C7.89917 20.0953 7.80583 20.1728 7.68083 20.2761C8.1925 20.6853 8.67583 21.0736 9.15917 21.4603C9.88917 22.0444 10.62 22.6261 11.3483 23.2119C11.8417 23.6094 11.9317 24.1678 11.58 24.6044ZM20.0825 14.2119C18.2467 18.5044 16.4075 22.7953 14.5675 27.0853C14.3667 27.5536 14.0158 27.7878 13.5875 27.7544C13.1858 27.7236 12.8167 27.4378 12.765 27.0278C12.735 26.7861 12.7875 26.5078 12.8842 26.2811C14.415 22.6819 15.9592 19.0886 17.5 15.4936C17.8025 14.7878 18.0992 14.0794 18.4092 13.3769C18.6042 12.9361 19.0425 12.7128 19.4733 12.8103C19.9033 12.9069 20.2133 13.2969 20.2083 13.8211C20.1833 13.8994 20.1475 14.0619 20.0825 14.2119ZM27.2867 21.0519C25.765 22.2761 24.24 23.4953 22.7117 24.7094C22.2525 25.0753 21.6833 25.0194 21.3517 24.5978C21.0175 24.1736 21.0942 23.6153 21.5492 23.2486C22.6817 22.3369 23.8192 21.4303 24.9542 20.5219C25.0425 20.4503 25.1292 20.3769 25.2575 20.2711C24.5133 19.6744 23.8017 19.1044 23.09 18.5344C22.5792 18.1253 22.0658 17.7194 21.5583 17.3078C21.0908 16.9278 21.0133 16.3611 21.3642 15.9353C21.705 15.5211 22.2625 15.4803 22.7267 15.8494C24.2467 17.0594 25.7633 18.2711 27.2775 19.4878C27.8417 19.9411 27.8467 20.6019 27.2867 21.0519Z" fill="#FF782D"/>
<path d="M32.4367 3.55006C32.4333 1.82923 31.2317 0.625892 29.5125 0.625892C20.8225 0.624226 12.1317 0.624226 3.44167 0.625059C1.95083 0.625892 0.8975 1.46339 0.5525 2.91339C0.540833 2.96339 0.5175 3.01006 0.5 3.05756V8.11006H32.4225C32.4283 7.99089 32.4367 7.89089 32.4367 7.79089C32.4375 6.37756 32.44 4.96339 32.4367 3.55006ZM5.23667 6.23756C4.73167 6.23589 4.30833 5.81256 4.30583 5.30673C4.30333 4.79006 4.74333 4.35756 5.26 4.36839C5.76583 4.37923 6.18167 4.80923 6.175 5.31423C6.16833 5.82006 5.74167 6.24006 5.23667 6.23756ZM8.97167 6.23756C8.46667 6.23089 8.04667 5.80423 8.04917 5.29923C8.05083 4.79339 8.47417 4.37006 8.97917 4.36839C9.485 4.36673 9.91167 4.78589 9.9175 5.29173C9.92417 5.80923 9.48917 6.24423 8.97167 6.23756ZM12.7208 6.23756C12.2158 6.23506 11.7933 5.81173 11.7917 5.30589C11.79 4.78839 12.2292 4.35673 12.7467 4.36839C13.2517 4.38006 13.6675 4.81006 13.6608 5.31506C13.6533 5.82089 13.2258 6.24006 12.7208 6.23756ZM27.5683 6.23839C26.6758 6.24006 25.7833 6.23923 24.89 6.23923C23.9975 6.23923 23.105 6.24006 22.2125 6.23839C21.5792 6.23756 21.1533 5.86506 21.1483 5.31089C21.1433 4.75673 21.5708 4.36839 22.1958 4.36839C23.9917 4.36673 25.7867 4.36673 27.5825 4.36839C28.21 4.36839 28.6358 4.75423 28.6308 5.31006C28.6267 5.86589 28.2033 6.23756 27.5683 6.23839Z" fill="#FF782D"/>
</g>
<defs>
<clipPath id="clip0_424_140">
<rect width="32" height="32" fill="white" transform="translate(0.5 0.5)"/>
</clipPath>
</defs>
</svg>
