<svg width="33" height="33" viewBox="0 0 33 33" fill="none" xmlns="http://www.w3.org/2000/svg">
<path d="M28.4383 6.46564C28.4367 6.22898 28.3992 5.98814 28.3417 5.75814C27.9592 4.21148 26.6817 3.22898 25.0292 3.22148C23.0433 3.21314 21.0583 3.21981 19.0725 3.21981C14.6958 3.21981 10.32 3.21564 5.94334 3.22148C3.93667 3.22398 2.49334 4.64314 2.49167 6.61481C2.48667 12.5623 2.48834 18.5098 2.49417 24.4573C2.49417 24.7348 2.52417 25.0198 2.59 25.289C2.95917 26.8106 4.23167 27.8265 5.83334 27.8323C9.64834 27.8473 13.4633 27.8373 17.2792 27.8373C17.34 27.8373 17.4017 27.8281 17.5117 27.8198C17.5117 27.7148 17.5175 27.6331 17.5108 27.5531C17.4275 26.519 17.7283 25.599 18.2542 24.7115C19.5025 22.6023 20.7058 20.4665 21.9433 18.3506C22.2608 17.8065 22.575 17.2781 22.4608 16.6123C22.4583 16.5956 22.475 16.5756 22.4967 16.5231C22.9942 16.6848 23.13 16.289 23.315 15.9615C23.3608 15.8806 23.4075 15.7998 23.4542 15.7181C23.6742 15.3348 23.8942 14.9523 24.1433 14.5198H22.4792V10.5515H26.4367C26.445 10.7131 26.4517 10.8606 26.4583 10.9898C26.7892 10.8681 27.09 10.7181 27.4083 10.6515C27.7367 10.5831 28.0808 10.5973 28.435 10.574C28.4383 10.5273 28.4442 10.4773 28.4442 10.4273C28.4442 9.10648 28.4475 7.78564 28.4383 6.46564ZM8.455 25.8206C7.485 25.8206 6.52084 25.8531 5.56084 25.8081C5.01917 25.7823 4.5375 25.254 4.50584 24.6931C4.46584 23.9815 4.49584 23.2648 4.49584 22.5231H8.455V25.8206ZM8.45667 20.5006H4.50417V16.5423H8.45667V20.5006ZM8.46334 14.5056H4.50834V10.5506H8.46334V14.5056ZM8.46334 8.52231H4.48667V7.86064C4.48667 7.41398 4.47917 6.96731 4.48917 6.52064C4.5025 5.88731 4.95834 5.28314 5.55834 5.25064C6.51917 5.19898 7.48417 5.23648 8.46334 5.23648V8.52231ZM19.0167 17.0848C17.6842 17.849 16.3558 18.619 15.025 19.3873C14.6658 19.5948 14.3067 19.804 13.9467 20.0098C12.8542 20.634 11.8025 20.0315 11.7983 18.7781C11.795 17.8015 11.7975 16.8248 11.7975 15.8473C11.7975 14.8815 11.7958 13.9148 11.7983 12.9481C11.8017 11.689 12.8533 11.0848 13.9433 11.7131C15.6425 12.6931 17.3408 13.6756 19.0408 14.654C19.4967 14.9165 19.7767 15.2881 19.7875 15.829C19.7983 16.4098 19.5058 16.804 19.0167 17.0848ZM26.4483 8.51398H22.4667V5.23898C22.5567 5.23148 22.645 5.21731 22.7333 5.21731C23.4917 5.21564 24.25 5.21314 25.0083 5.21731C25.9092 5.22231 26.4442 5.75648 26.4475 6.65064C26.45 7.26398 26.4483 7.87648 26.4483 8.51398Z" fill="#FF782D"/>
<path d="M25.5833 14.6948C23.5475 18.2223 21.5225 21.7307 19.4858 25.259C20.6558 25.934 21.7917 26.5898 22.9458 27.2557C24.9867 23.7207 27.0117 20.2123 29.0433 16.6915C27.87 16.014 26.74 15.3623 25.5833 14.6948ZM25.735 19.7298C25.5433 20.0407 25.1608 20.0998 24.8558 19.9157C24.5675 19.7407 24.4375 19.3823 24.6033 19.0757C24.9383 18.4548 25.2892 17.8415 25.6667 17.2457C25.7642 17.0923 25.9842 17.0157 26.1483 16.904C26.6758 16.954 27.0217 17.4548 26.7925 17.8973C26.4675 18.5232 26.1058 19.1307 25.735 19.7298Z" fill="#FF782D"/>
<path d="M28.4442 24.4117C28.4375 26.385 27.03 27.8084 25.06 27.8375C24.7808 27.8409 24.5017 27.8375 24.145 27.8375C24.5392 27.155 24.8983 26.5267 25.2675 25.905C25.3025 25.8467 25.4 25.8167 25.4742 25.79C26.1183 25.5634 26.4625 25.1134 26.44 24.4309C26.4267 24.0184 26.5333 23.6717 26.7442 23.3217C27.3042 22.3909 27.8367 21.4425 28.4217 20.4292C28.4325 20.595 28.4442 20.6809 28.4442 20.7667C28.445 21.9817 28.4475 23.1967 28.4442 24.4117Z" fill="#FF782D"/>
<path d="M30.2958 14.5099C30.1233 14.8507 29.9183 15.1749 29.71 15.5382C28.5408 14.864 27.4042 14.2082 26.2467 13.5407C26.4708 13.1607 26.66 12.7907 26.8942 12.4532C27.2642 11.9207 27.9742 11.7565 28.5583 12.0615C28.99 12.2865 29.4125 12.5307 29.8233 12.7915C30.4158 13.1665 30.6125 13.8857 30.2958 14.5099Z" fill="#FF782D"/>
<path d="M22.1967 28.3631C22.0008 28.5065 21.8533 28.6373 21.6858 28.7331C21.0917 29.0731 20.495 29.409 19.8917 29.7323C19.4392 29.9756 18.9208 29.7631 18.8925 29.2831C18.8433 28.4348 18.8633 27.5823 18.8583 26.7306C18.8583 26.6615 18.8925 26.5906 18.9233 26.4731C20.0233 27.1081 21.0875 27.7231 22.1967 28.3631Z" fill="#FF782D"/>
</svg>
