<svg width="62" height="72" viewBox="0 0 62 72" fill="none" xmlns="http://www.w3.org/2000/svg">
<path d="M47.6839 44.1127C47.6636 44.1044 47.6432 44.0969 47.6227 44.0899C45.6385 43.3529 44.0576 43.1134 43.8534 43.0662C43.7156 42.6204 43.484 42.1981 43.1577 41.8319C41.5812 40.063 39.6902 39.0891 38.667 38.6542V37.3641C40.9018 35.7579 42.4685 33.6508 43.1248 30.4501H44.3771C46.3253 30.4501 47.9104 28.8651 47.9104 26.9169V24.7874C47.9104 23.2057 46.8656 21.8633 45.4274 21.4143V18.3267C45.8546 18.038 46.1491 17.5846 46.2356 17.0756L47.0079 12.5341L51.7074 10.7501V12.2908C50.8457 12.4161 50.1559 13.1047 50.0527 13.9929L49.4963 18.7908C49.3628 19.9439 50.2636 20.9643 51.4324 20.9643H54.0916C55.2526 20.9643 56.1624 19.9516 56.0277 18.7905L55.4713 13.9929C55.3682 13.1049 54.6784 12.4161 53.8165 12.2908V8.98119C53.8165 8.97993 53.8167 8.9788 53.8167 8.97754C53.8165 8.38733 53.4599 7.87068 52.9082 7.66143L47.1376 5.47091C46.5926 5.26391 45.9839 5.53813 45.7771 6.08263C45.5704 6.62727 45.8444 7.23632 46.3889 7.44304L50.4327 8.97796L46.1688 10.5966C46.0138 10.4978 45.8427 10.4194 45.6568 10.3678C35.8805 7.65664 26.3761 7.65693 16.6007 10.3678C16.4148 10.4192 16.2435 10.4978 16.0885 10.5966L11.8246 8.97796L28.7853 2.53972C30.2962 1.96597 31.961 1.96583 33.4725 2.53972L41.7733 5.69071C42.3182 5.89785 42.9268 5.62349 43.1337 5.07899C43.3404 4.53435 43.0665 3.9253 42.522 3.71858L34.2211 0.567738C32.2268 -0.189246 30.0307 -0.189246 28.0366 0.567738L9.34951 7.66128C8.79755 7.87068 8.44093 8.38733 8.44093 8.97754C8.44079 9.56774 8.79727 10.0847 9.34937 10.2943L15.2498 12.5341L16.0223 17.0754C16.1088 17.5845 16.4033 18.038 16.8305 18.3266V21.4134C15.3934 21.8617 14.3475 23.2047 14.3475 24.7873V26.9168C14.3475 28.8649 15.9324 30.45 17.8808 30.45H19.1334C19.7358 33.4702 21.1773 35.5506 23.333 37.1738V38.6542C22.3096 39.089 20.4187 40.0631 18.8424 41.8319C18.5161 42.1979 18.2845 42.6202 18.1467 43.066C18.0962 43.0777 16.0119 43.4194 14.3158 44.1127C6.08771 47.1979 0.419678 55.1332 0.419678 64.1592V66.619C0.419678 69.5861 2.83365 72 5.80069 72H56.1993C59.1663 72 61.5803 69.5861 61.5803 66.619V64.1592C61.5803 55.1329 55.9121 47.1976 47.6839 44.1127ZM53.3926 14.378L53.9117 18.855H51.6124L52.1316 14.378H53.3926ZM39.1804 41.2802C39.9377 41.7316 40.8124 42.371 41.5827 43.2353C41.954 43.6521 41.9929 44.2625 41.6934 44.7127C41.6931 44.7133 41.6928 44.7139 41.6924 44.7144C41.6897 44.7184 41.6872 44.7223 41.6847 44.7264L37.531 50.9285C37.5309 50.9288 37.5306 50.9291 37.5305 50.9293C37.1729 51.4633 36.4658 51.6146 35.9213 51.2742C34.9167 50.6464 33.3778 49.685 32.7636 49.3012L37.5445 45.0713C38.6413 44.1007 39.2208 42.6973 39.1804 41.2802ZM35.8516 53.4913C35.5059 54.0328 35.0037 54.8197 34.2744 55.9627L33.5966 54.0043L34.4476 52.8404C34.6782 52.967 35.0992 53.326 35.8516 53.4913ZM36.8895 40.4328C37.3042 41.5023 37.0058 42.7315 36.1467 43.4914L31 48.0448L25.8534 43.4914C24.9943 42.7315 24.6958 41.5024 25.1106 40.433C25.2677 39.9454 25.4423 39.7324 25.4423 39.3801V38.4854C28.8785 40.199 32.9528 40.3078 36.5575 38.6083V39.3801C36.5575 39.6502 36.6424 39.7888 36.8895 40.4328ZM31 50.6865L32.6537 51.7198L31.8838 52.7728H30.1162L29.3462 51.7198L31 50.6865ZM30.3319 54.8822H31.6682L32.8273 58.231C32.5404 58.6807 32.2324 59.1634 31.9004 59.6838C31.4818 60.3455 30.5221 60.3515 30.0977 59.6804C29.7664 59.1613 29.4593 58.6798 29.173 58.231L30.3319 54.8822ZM43.3179 21.2541H42.117C41.4985 21.2541 40.9326 20.7996 40.9326 20.1413V17.9227C41.726 18.0789 42.521 18.2537 43.3179 18.4476V21.2541ZM45.8009 24.7874V26.9169C45.8009 27.702 45.1621 28.3408 44.3769 28.3408H43.3875C43.4248 27.6153 43.3945 28.5642 43.4058 23.3635H44.3726C44.3733 23.3635 44.374 23.3633 44.3748 23.3633C44.3757 23.3633 44.3762 23.3635 44.3771 23.3635C45.1621 23.3635 45.8009 24.0023 45.8009 24.7874ZM44.9001 12.3471L44.1954 16.4904C35.4401 14.2991 26.8878 14.2812 18.0622 16.4903L17.3575 12.3471C26.6219 9.81186 35.6353 9.81186 44.9001 12.3471ZM17.8808 28.3409C17.0957 28.3409 16.4568 27.7022 16.4568 26.9171V24.7876C16.4568 24.0025 17.0957 23.3636 17.8808 23.3636H17.8852H18.8558C18.8719 28.4368 18.8386 27.5386 18.8787 28.3409H17.8808ZM18.9398 21.2541V18.4475C19.7368 18.2536 20.5317 18.0786 21.3251 17.9226C21.3237 20.2894 21.3282 20.1509 21.3212 20.2427C21.2766 20.8099 20.758 21.2541 20.1409 21.2541C20.119 21.2541 18.86 21.2541 18.9398 21.2541ZM20.9684 27.8503L20.9651 23.2573C22.2932 22.9194 23.3153 21.7903 23.424 20.4087C23.4425 20.1742 23.431 20.2641 23.4345 17.5513C28.5815 16.7528 33.6762 16.7528 38.8234 17.5514C38.8269 20.2334 38.8154 20.1751 38.8339 20.4082C38.9428 21.7914 39.9667 22.9213 41.2966 23.2581C41.297 29.442 41.2846 27.5229 41.2973 27.8986C40.9603 40.9552 21.2606 40.9921 20.9684 27.8503ZM20.4173 43.2353C21.1875 42.3709 22.0623 41.7315 22.8196 41.2801C22.7793 42.697 23.3587 44.1007 24.4557 45.0713L29.2367 49.3012C28.5912 49.7017 27.7343 50.2358 26.079 51.2742C25.5346 51.6145 24.8278 51.4633 24.4701 50.9298L20.3156 44.7264C20.3129 44.7223 20.3102 44.7184 20.3076 44.7143C20.3073 44.7139 20.307 44.7133 20.3067 44.7129C20.0132 44.2719 20.039 43.6599 20.4173 43.2353ZM28.4033 54.0044L27.7255 55.9629C26.9961 54.8197 26.4939 54.0328 26.1483 53.4913C26.8992 53.3263 27.3138 52.9714 27.5524 52.8407L28.4033 54.0044ZM59.4709 66.619C59.4709 68.4231 58.0034 69.8907 56.1993 69.8907H50.7248V62.6507C50.7248 62.0681 50.2527 61.596 49.6701 61.596C49.0875 61.596 48.6154 62.0681 48.6154 62.6507V69.8907H13.3846V62.6507C13.3846 62.0681 12.9125 61.596 12.3299 61.596C11.7473 61.596 11.2752 62.0681 11.2752 62.6507V69.8907H5.80069C3.99662 69.8907 2.52905 68.4231 2.52905 66.619V64.1592C2.52905 56.3054 7.28963 49.3678 14.2909 46.3939L17.4575 51.4152C17.6581 51.7333 18.0005 51.9074 18.3506 51.9074C18.5429 51.9074 18.7376 51.8548 18.9123 51.7447C19.4049 51.4341 19.5526 50.7827 19.2418 50.2899L16.3237 45.6627C17.322 45.3657 18.0067 45.2467 18.2061 45.203C18.5863 46.2409 18.0825 44.77 28.3173 60.8116C29.5653 62.785 32.4387 62.7787 33.6809 60.815C41.6985 48.2473 43.4308 45.8999 43.4449 45.8886C43.5879 45.6742 43.7173 45.4125 43.7941 45.2028C44.0106 45.2502 44.6467 45.3561 45.6765 45.6624L35.4266 61.9154C33.3889 65.1464 28.6105 65.1455 26.5735 61.9154L21.8729 54.4616C21.5622 53.9688 20.9108 53.8214 20.4181 54.1321C19.9255 54.4427 19.7778 55.0941 20.0886 55.5868L24.7893 63.0407C27.6547 67.584 34.3453 67.5841 37.2106 63.0407L47.7089 46.3935C54.7102 49.3674 59.4708 56.305 59.4708 64.1589V66.619H59.4709Z" fill="black"/>
</svg>
