<svg width="33" height="33" viewBox="0 0 33 33" fill="none" xmlns="http://www.w3.org/2000/svg">
<g clip-path="url(#clip0_424_263)">
<path d="M24.5967 23.5853C24.2033 19.0378 20.0417 15.6753 15.4925 16.2286C11.1133 16.7619 7.90834 20.6794 8.3625 25.0769C8.72167 28.5461 10.6433 30.8769 13.9142 32.0694C14.5108 32.2878 15.1608 32.3603 15.7867 32.5003H17.1592C17.3108 32.4744 17.4625 32.4453 17.615 32.4228C21.9442 31.7853 24.9742 27.9494 24.5967 23.5853ZM17.6483 29.4903C17.5725 29.5219 17.4967 29.5528 17.4075 29.5886V30.9819H15.545V29.6019C14.0292 28.8786 13.2658 27.8328 13.3417 26.5661H15.1475C15.1708 26.6453 15.195 26.7111 15.2092 26.7794C15.3592 27.4861 15.9292 27.9053 16.6392 27.8286C17.2708 27.7611 17.7742 27.1836 17.7617 26.5411C17.7475 25.8544 17.22 25.2953 16.5108 25.2753C15.5683 25.2486 14.7667 24.9244 14.1333 24.2236C12.6725 22.6078 13.2325 20.0761 15.2467 19.2153C15.4767 19.1169 15.5583 19.0069 15.5425 18.7619C15.52 18.4119 15.5367 18.0586 15.5367 17.6819H17.4083C17.4083 18.0703 17.4225 18.4419 17.4033 18.8119C17.3925 19.0228 17.465 19.1128 17.6592 19.1969C18.8392 19.7078 19.4917 20.6144 19.62 21.8953C19.6258 21.9553 19.62 22.0161 19.62 22.0969H17.79C17.77 22.0194 17.7467 21.9419 17.73 21.8628C17.5858 21.1886 16.9908 20.7594 16.3075 20.8378C15.665 20.9111 15.1533 21.5136 15.185 22.1603C15.2192 22.8411 15.7425 23.3603 16.4317 23.3961C18.0192 23.4778 19.1842 24.3819 19.535 25.8044C19.9117 27.3344 19.1208 28.8811 17.6483 29.4903Z" fill="#FF782D"/>
<path d="M8.8725 17.495C8.87083 17.6633 8.79833 17.8608 8.69417 17.9933C7.97917 18.8975 7.40833 19.8791 7.02333 20.9675C6.97333 21.1075 6.93833 21.225 6.7375 21.2241C4.65833 21.2133 2.57917 21.2125 0.5 21.2083V19.3366H4.10833V12.98H8.88083V13.3158C8.88083 14.7091 8.88667 16.1016 8.8725 17.495Z" fill="#FF782D"/>
<path d="M32.4267 19.3477V21.2027C32.325 21.2085 32.225 21.2193 32.1258 21.2193C30.1925 21.2202 28.2592 21.2152 26.3267 21.226C26.0908 21.2268 25.9817 21.1602 25.9033 20.9343C25.5308 19.8535 24.9575 18.8843 24.2475 17.9902C24.1483 17.8643 24.0725 17.6785 24.0725 17.521C24.0633 11.9718 24.065 6.42267 24.065 0.873503V0.569336H28.8283V19.3477H32.4267Z" fill="#FF782D"/>
<path d="M22.1667 4.7041V15.9824C21.4158 15.6258 20.6767 15.2066 19.89 14.9199C19.1058 14.6341 18.2725 14.4816 17.4267 14.2624V4.7041H22.1667Z" fill="#FF782D"/>
<path d="M15.5125 8.84912V14.2633C14.6808 14.48 13.8408 14.6358 13.0483 14.9233C12.2675 15.2075 11.5342 15.625 10.7742 15.9866V8.84912H15.5125Z" fill="#FF782D"/>
</g>
<defs>
<clipPath id="clip0_424_263">
<rect width="32" height="32" fill="white" transform="translate(0.5 0.5)"/>
</clipPath>
</defs>
</svg>
